# xmcd
#
# Track frame offsets:
#	180
#	26601
#	70496
#	98835
#	123212
#	144746
#	177457
#	200081
#	230562
#
# Disc length: 4432 seconds
#
# Revision: 2
# Processed by: cddbd v1.5.1PL0 Copyright (c) Steve Scherf et al.
# Submitted via: MusicWizard 7.0.2
#
DISCID=85114e09
DTITLE=Sledge, Sister - Lost in Music (Hits Live)
DYEAR=1900
DGENRE=Soul
TTITLE0=Everybody Dance
TTITLE1=Thinking Of You
TTITLE2=He's the greatest dancer
TTITLE3=True Love
TTITLE4=Frankie
TTITLE5=Brother Brother Stop
TTITLE6=Love Of The Lord
TTITLE7=We Are Family
TTITLE8=Medley
EXTD=
EXTT0=
EXTT1=
EXTT2=
EXTT3=
EXTT4=
EXTT5=
EXTT6=
EXTT7=
EXTT8=
PLAYORDER=
